Release info:

General
Format                                   : Matroska
Format version                           : Version 4 / Version 2
File size                                : 777 MiB
Duration                                 : 1h 26mn
Overall bit rate                         : 1 262 Kbps
Movie name                               : The Liability 2012 DVDRip English

Video
ID                                       : 1
Format                                   : MPEG-4 Visual
Format profile                           : Advanced Simple@L5
Format settings, BVOP                    : Yes
Format settings, QPel                    : No
Format settings, GMC                     : No warppoints
Format settings, Matrix                  : Default (H.263)
Codec ID                                 : V_MS/VFW/FOURCC / XVID
Codec ID/Hint                            : XviD
Duration                                 : 1h 26mn
Bit rate                                 : 1 109 Kbps
Width                                    : 720 pixels
Height                                   : 304 pixels
Display aspect ratio                     : 2.35:1
Frame rate mode                          : Constant
Frame rate                               : 23.976 fps
Color space                              : YUV
Chroma subsampling                       : 4:2:0
Bit depth                                : 8 bits
Scan type                                : Progressive
Compression mode                         : Lossy
Bits/(Pixel*Frame)                       : 0.211
Stream size                              : 683 MiB (88%)
Title                                    : The Liability 2012 DVDRip English
Writing library                          : XviD 64
Language                                 : English
Default                                  : Yes
Forced                                   : No

Audio
ID                                       : 2
Format                                   : MPEG Audio
Format version                           : Version 1
Format profile                           : Layer 3
Mode                                     : Joint stereo
Mode extension                           : MS Stereo
Codec ID                                 : A_MPEG/L3
Codec ID/Hint                            : MP3
Duration                                 : 1h 26mn
Bit rate mode                            : Constant
Bit rate                                 : 128 Kbps
Channel(s)                               : 2 channels
Sampling rate                            : 44.1 KHz
Compression mode                         : Lossy
Stream size                              : 78.8 MiB (10%)
Title                                    : The Liability 2012 DVDRip English
Language                                 : English
Default                                  : Yes
Forced                                   : No



Source:
credit to original movie ripper MATiNE (Thanks)

IMDB Info:

When 19-year-old Adam agrees to do a day's driving for his mum's gangster boyfriend Peter, it takes him on a 24-hour journey into a nightmarish world of murder, sex trafficking and revenge, in the company of aging hit man Roy.

Director: Craig Viveiros
Writer: John Wrathall
Stars: Tim Roth, Talulah Riley and Jack O'Connell 

Genres: Thriller | Action
 
http://www.imdb.com/title/tt2081437/

Screen Shot:
 
http://www.shotpix.com/images/87985471212316144740.png 
http://www.shotpix.com/images/57033213235621232957.png 
http://www.shotpix.com/images/04522807883751000146.png 
http://www.shotpix.com/images/67680371031379073211.png